<?xml version="1.0" encoding="UTF-8"?>
<!--Generator: Apple Native CoreSVG 341-->
<!DOCTYPE svg
PUBLIC "-//W3C//DTD SVG 1.1//EN"
       "http://www.w3.org/Graphics/SVG/1.1/DTD/svg11.dtd">
<svg version="1.1" xmlns="http://www.w3.org/2000/svg" xmlns:xlink="http://www.w3.org/1999/xlink" viewBox="0 0 20.7578 20.3672">
 <g>
  <rect height="20.3672" opacity="0" width="20.7578" x="0" y="0"/>
  <path d="M20.3516 10.1797C20.3516 15.7812 15.7812 20.3516 10.1719 20.3516C4.57031 20.3516 0 15.7812 0 10.1797C0 4.57031 4.57031 0 10.1719 0C15.7812 0 20.3516 4.57031 20.3516 10.1797ZM13.5391 6.16406L9.02344 13.3438L6.77344 10.5312C6.5625 10.2578 6.36719 10.1719 6.125 10.1719C5.73438 10.1719 5.42969 10.4922 5.42969 10.8828C5.42969 11.0781 5.50781 11.2734 5.64062 11.4453L8.30469 14.6641C8.53125 14.9531 8.75781 15.0781 9.05469 15.0781C9.35156 15.0781 9.59375 14.9375 9.77344 14.6641L14.6719 6.98438C14.7734 6.82031 14.875 6.61719 14.875 6.42969C14.875 6.03125 14.5312 5.76562 14.1562 5.76562C13.9219 5.76562 13.6953 5.90625 13.5391 6.16406Z" fill="#d4bee6"/>
 </g>
</svg>
