<?xml version="1.0" encoding="UTF-8"?>
<!--Generator: Apple Native CoreSVG 341-->
<!DOCTYPE svg
PUBLIC "-//W3C//DTD SVG 1.1//EN"
       "http://www.w3.org/Graphics/SVG/1.1/DTD/svg11.dtd">
<svg version="1.1" xmlns="http://www.w3.org/2000/svg" xmlns:xlink="http://www.w3.org/1999/xlink" viewBox="0 0 20.7578 20.3672">
 <g>
  <rect height="20.3672" opacity="0" width="20.7578" x="0" y="0"/>
  <path d="M10.1719 20.3516C15.7891 20.3516 20.3516 15.7969 20.3516 10.1797C20.3516 4.5625 15.7891 0 10.1719 0C4.55469 0 0 4.5625 0 10.1797C0 15.7969 4.55469 20.3516 10.1719 20.3516ZM10.1719 18.8984C5.35156 18.8984 1.45312 15 1.45312 10.1797C1.45312 5.35938 5.35156 1.46094 10.1719 1.46094C14.9922 1.46094 18.8906 5.35938 18.8906 10.1797C18.8906 15 14.9922 18.8984 10.1719 18.8984Z" fill="#c2c7cf"/>
  <path d="M4.76562 11.2031L10.1641 11.2031C10.5078 11.2031 10.7734 10.9375 10.7734 10.5938L10.7734 3.625C10.7734 3.28906 10.5078 3.02344 10.1641 3.02344C9.83594 3.02344 9.5625 3.28906 9.5625 3.625L9.5625 9.99219L4.76562 9.99219C4.42188 9.99219 4.16406 10.2578 4.16406 10.5938C4.16406 10.9375 4.42188 11.2031 4.76562 11.2031Z" fill="#c2c7cf"/>
 </g>
</svg>
