<?xml version="1.0" encoding="UTF-8"?>
<!--Generator: Apple Native CoreSVG 341-->
<!DOCTYPE svg
PUBLIC "-//W3C//DTD SVG 1.1//EN"
       "http://www.w3.org/Graphics/SVG/1.1/DTD/svg11.dtd">
<svg version="1.1" xmlns="http://www.w3.org/2000/svg" xmlns:xlink="http://www.w3.org/1999/xlink" viewBox="0 0 20.7578 20.3672">
 <g>
  <rect height="20.3672" opacity="0" width="20.7578" x="0" y="0"/>
  <path d="M20.3516 10.1797C20.3516 15.7812 15.7812 20.3516 10.1719 20.3516C4.57031 20.3516 0 15.7812 0 10.1797C0 4.57031 4.57031 0 10.1719 0C15.7812 0 20.3516 4.57031 20.3516 10.1797ZM12.5312 5.71875L10.2734 9.07031L10.2266 9.07031L7.9375 5.71094C7.74219 5.42969 7.5625 5.32031 7.25781 5.32031C6.88281 5.32031 6.5625 5.61719 6.5625 5.98438C6.5625 6.17969 6.61719 6.30469 6.75781 6.49219L9.28906 10.0625L6.63281 13.8047C6.51562 13.9766 6.46875 14.0859 6.46875 14.2734C6.46875 14.625 6.75781 14.8906 7.13281 14.8906C7.42188 14.8906 7.57031 14.7812 7.79688 14.4766L10.1172 11.1328L10.1562 11.1328L12.4609 14.4766C12.6875 14.7812 12.8438 14.8906 13.1328 14.8906C13.5312 14.8906 13.8281 14.625 13.8281 14.2422C13.8281 14.0547 13.7734 13.9219 13.6562 13.7656L11.0391 10.1016L13.6797 6.42188C13.8047 6.25781 13.8594 6.10938 13.8594 5.95312C13.8594 5.59375 13.5625 5.32031 13.1797 5.32031C12.8984 5.32031 12.7266 5.42969 12.5312 5.71875Z" fill="#ffb4ab"/>
 </g>
</svg>
