<?xml version="1.0" encoding="UTF-8"?>
<!--Generator: Apple Native CoreSVG 341-->
<!DOCTYPE svg
PUBLIC "-//W3C//DTD SVG 1.1//EN"
       "http://www.w3.org/Graphics/SVG/1.1/DTD/svg11.dtd">
<svg version="1.1" xmlns="http://www.w3.org/2000/svg" xmlns:xlink="http://www.w3.org/1999/xlink" viewBox="0 0 14.1172 20.1797">
 <g>
  <rect height="20.1797" opacity="0" width="14.1172" x="0" y="0"/>
  <path d="M2.1875 19.6406L11.5234 19.6406C12.9219 19.6406 13.7109 18.8281 13.7109 17.3281L13.7109 10.2188C13.7109 8.72656 12.9219 7.91406 11.5234 7.91406L2.1875 7.91406C0.78125 7.91406 0 8.72656 0 10.2188L0 17.3281C0 18.8281 0.78125 19.6406 2.1875 19.6406ZM1.78906 8.57812L3.16406 8.57812L3.16406 5.38281C3.16406 2.78125 4.8125 1.30469 6.85156 1.30469C8.89062 1.30469 10.5547 2.78125 10.5547 5.38281L10.5547 8.57812L11.9297 8.57812L11.9297 5.54688C11.9297 1.90625 9.55469 0 6.85156 0C4.15625 0 1.78906 1.90625 1.78906 5.54688Z" fill="#42474e"/>
 </g>
</svg>
